<?xml version="1.0" standalone="no"?>
<!DOCTYPE svg PUBLIC "-//W3C//DTD SVG 20010904//EN"
 "http://www.w3.org/TR/2001/REC-SVG-20010904/DTD/svg10.dtd">
<svg version="1.0" xmlns="http://www.w3.org/2000/svg"
 width="300.000000pt" height="300.000000pt" viewBox="0 0 300.000000 300.000000"
 preserveAspectRatio="xMidYMid meet">
<metadata>
Created by potrace 1.14, written by Peter Selinger 2001-2017
</metadata>
<g transform="translate(0.000000,300.000000) scale(0.100000,-0.100000)"
fill="#000000" stroke="none">
<path d="M1349 2879 c-410 -43 -789 -276 -1014 -624 -96 -146 -161 -304 -200
-485 -25 -115 -31 -354 -12 -475 64 -400 283 -742 617 -959 251 -164 505 -234
810 -223 167 6 254 21 395 69 606 207 1002 817 936 1443 -36 340 -169 621
-402 854 -301 300 -710 445 -1130 400z m291 -1080 c115 -54 181 -154 188 -284
5 -98 -19 -170 -79 -239 -46 -52 -140 -102 -210 -111 -189 -27 -370 131 -371
323 -2 154 68 259 211 319 77 32 182 29 261 -8z m-532 -391 c49 -207 250 -346
450 -309 171 31 291 144 333 314 l11 47 461 0 460 0 -7 -77 c-54 -597 -498
-1084 -1086 -1189 -111 -20 -341 -23 -441 -5 -425 73 -787 341 -981 726 -62
122 -128 377 -128 491 l0 54 458 0 457 0 13 -52z"/>
<path d="M1426 1695 c-87 -31 -142 -121 -134 -219 15 -178 241 -250 362 -116
92 102 59 267 -67 325 -58 28 -104 31 -161 10z m142 -75 c50 -30 74 -76 69
-131 -5 -60 -36 -102 -89 -124 -54 -21 -98 -13 -143 26 -100 88 -38 248 95
249 19 0 50 -9 68 -20z"/>
</g>
</svg>
